<svg width="45" height="45" viewBox="0 0 45 45" fill="none" xmlns="http://www.w3.org/2000/svg">
<circle cx="2.5" cy="2.5" r="2.5" fill="#006DA5"/>
<circle cx="2.5" cy="18.5" r="2.5" fill="#006DA5"/>
<circle cx="2.5" cy="34.5" r="2.5" fill="#006DA5"/>
<circle cx="2.5" cy="10.5" r="2.5" fill="#006DA5"/>
<circle cx="2.5" cy="26.5" r="2.5" fill="#006DA5"/>
<circle cx="2.5" cy="42.5" r="2.5" fill="#006DA5"/>
<circle cx="26.5" cy="2.5" r="2.5" fill="#006DA5"/>
<circle cx="26.5" cy="18.5" r="2.5" fill="#006DA5"/>
<circle cx="26.5" cy="34.5" r="2.5" fill="#006DA5"/>
<circle cx="26.5" cy="10.5" r="2.5" fill="#006DA5"/>
<circle cx="26.5" cy="26.5" r="2.5" fill="#006DA5"/>
<circle cx="26.5" cy="42.5" r="2.5" fill="#006DA5"/>
<circle cx="18.5" cy="2.5" r="2.5" fill="#006DA5"/>
<circle cx="18.5" cy="18.5" r="2.5" fill="#006DA5"/>
<circle cx="18.5" cy="34.5" r="2.5" fill="#006DA5"/>
<circle cx="18.5" cy="10.5" r="2.5" fill="#006DA5"/>
<circle cx="18.5" cy="26.5" r="2.5" fill="#006DA5"/>
<circle cx="18.5" cy="42.5" r="2.5" fill="#006DA5"/>
<circle cx="42.5" cy="2.5" r="2.5" fill="#006DA5"/>
<circle cx="42.5" cy="18.5" r="2.5" fill="#006DA5"/>
<circle cx="42.5" cy="34.5" r="2.5" fill="#006DA5"/>
<circle cx="42.5" cy="10.5" r="2.5" fill="#006DA5"/>
<circle cx="42.5" cy="26.5" r="2.5" fill="#006DA5"/>
<circle cx="42.5" cy="42.5" r="2.5" fill="#006DA5"/>
<circle cx="10.5" cy="2.5" r="2.5" fill="#006DA5"/>
<circle cx="10.5" cy="18.5" r="2.5" fill="#006DA5"/>
<circle cx="10.5" cy="34.5" r="2.5" fill="#006DA5"/>
<circle cx="10.5" cy="10.5" r="2.5" fill="#006DA5"/>
<circle cx="10.5" cy="26.5" r="2.5" fill="#006DA5"/>
<circle cx="10.5" cy="42.5" r="2.5" fill="#006DA5"/>
<circle cx="34.5" cy="2.5" r="2.5" fill="#006DA5"/>
<circle cx="34.5" cy="18.5" r="2.5" fill="#006DA5"/>
<circle cx="34.5" cy="34.5" r="2.5" fill="#006DA5"/>
<circle cx="34.5" cy="10.5" r="2.5" fill="#006DA5"/>
<circle cx="34.5" cy="26.5" r="2.5" fill="#006DA5"/>
<circle cx="34.5" cy="42.5" r="2.5" fill="#006DA5"/>
</svg>
